<?xml version="1.0" encoding="utf-8"?>
<!-- Generator: Adobe Illustrator 19.0.0, SVG Export Plug-In . SVG Version: 6.00 Build 0)  -->
<svg version="1.0" id="Layer_1" xmlns="http://www.w3.org/2000/svg" xmlns:xlink="http://www.w3.org/1999/xlink" x="0px" y="0px"
	 viewBox="0 0 373 512" style="enable-background:new 0 0 373 512;" xml:space="preserve">
<style type="text/css">
	.st0{display:none;}
	.st1{fill:#D20A0A;}
</style>
<path class="st0" d="M556.9,32.5v23.2c-1.2-0.2-2.3-0.5-3.6-0.6l-0.7-0.1c-0.3,0-0.6,0-0.8,0.3c-0.4,0.4-0.4,1-0.1,1.4
	c1.6,1.7,3.2,3.5,4.8,5.2l0.3,0.4v46.2h73.1V61.6l6.6-6.8c2.3-2.4,4.6-4.9,6.9-7.3c2.3-2.4,4.6-4.9,6.8-7.3c0.2-0.2,0.3-0.5,0.3-0.8
	c-0.1-0.6-0.6-1-1.1-0.9l-0.7,0.1c-2.1,0.3-4,0.7-5.9,1.2c-1.9,0.5-3.7,1-5.5,1.6c-1.8,0.6-3.6,1.2-5.2,1.9l-2,0.8V32.5H556.9z
	 M620.7,99.1h-54.5V72c1.7,1.8,3.4,3.5,5.1,5.3l4.9,5.1c1.6,1.7,3.3,3.4,5,5.1l5.4,5.5c3.4,3.4,9,3.5,12.4,0.1l2.5-2.5
	c1.2-1.2,2.4-2.4,3.5-3.6l3.5-3.6l12.2-12.3V99.1z M620.7,48.2l-0.9,0.5l-2.3,1.2c-1.5,0.8-3,1.7-4.5,2.6c-0.7,0.4-1.5,0.9-2.2,1.4
	c-0.7,0.5-1.5,0.9-2.2,1.4l-2.1,1.4l-2.1,1.5c-1.4,1-2.7,2-4.1,3c-1.3,1-2.6,2.1-3.9,3.2c-1.3,1.1-2.5,2.2-3.8,3.3
	c-0.8,0.7-1.5,1.4-2.3,2.1l-0.8-0.5c-1.1-0.6-2.1-1.3-3.2-1.9c-1.1-0.6-2.1-1.2-3.2-1.8c-1.1-0.6-2.2-1.1-3.3-1.7
	c-1.1-0.5-2.3-1.1-3.4-1.6l-3.5-1.5c-1.2-0.5-2.4-0.9-3.6-1.4c-1-0.4-2-0.7-3-1.1V41.7h54.5V48.2z"/>
<path class="st0" d="M649.4,139.4l-0.7,0.1c-2.1,0.3-4,0.7-5.9,1.2c-1.9,0.5-3.7,1-5.5,1.6c-1.8,0.6-3.6,1.2-5.2,1.9l-2,0.8v-11.5
	h-73.1v23.2c-1.2-0.2-2.3-0.5-3.6-0.6l-0.7-0.1c-0.3,0-0.6,0-0.8,0.3c-0.4,0.4-0.4,1-0.1,1.4c1.6,1.7,3.2,3.5,4.8,5.2l0.3,0.3v46.2
	h73.1v-46.8l6.6-6.8c2.3-2.4,4.6-4.9,6.9-7.3c2.3-2.4,4.6-4.9,6.8-7.3c0.2-0.2,0.3-0.5,0.3-0.8C650.5,139.7,649.9,139.3,649.4,139.4
	 M620.7,200h-54.5v-27.1c1.7,1.8,3.4,3.5,5.1,5.3l4.9,5.1c1.6,1.7,3.3,3.4,5,5.1l5.4,5.5c3.4,3.4,9,3.5,12.4,0.1l2.5-2.5
	c1.2-1.2,2.4-2.4,3.5-3.6l3.5-3.6l12.2-12.3V200z M620.7,149.1l-0.9,0.5l-2.3,1.2c-1.5,0.8-3,1.7-4.5,2.6c-0.7,0.4-1.5,0.9-2.2,1.4
	c-0.7,0.5-1.5,0.9-2.2,1.4l-2.1,1.4l-2.1,1.5c-1.4,1-2.7,2-4.1,3c-1.3,1-2.6,2.1-3.9,3.2c-1.3,1.1-2.5,2.2-3.8,3.3
	c-0.8,0.7-1.5,1.4-2.3,2.1l-0.8-0.5c-1.1-0.6-2.1-1.3-3.2-1.9c-1.1-0.6-2.1-1.2-3.2-1.8c-1.1-0.6-2.2-1.1-3.3-1.7
	c-1.1-0.5-2.3-1.1-3.4-1.6l-3.5-1.5c-1.2-0.5-2.4-0.9-3.6-1.4c-1-0.4-2-0.7-3-1.1v-16.5h54.5V149.1z"/>
<path class="st0" d="M629.9,310.2v-46.8l6.6-6.8c2.3-2.4,4.6-4.9,6.9-7.3c2.3-2.4,4.6-4.9,6.8-7.3c0.2-0.2,0.3-0.5,0.3-0.8
	c-0.1-0.6-0.6-1-1.1-0.9l-0.7,0.1c-2.1,0.3-4,0.7-5.9,1.2c-1.9,0.5-3.7,1-5.5,1.6c-1.8,0.6-3.6,1.2-5.2,1.9l-2,0.8v-11.5h-73.1v23.2
	c-1.2-0.2-2.3-0.5-3.6-0.6l-0.7-0.1c-0.3,0-0.6,0-0.8,0.3c-0.4,0.4-0.4,1-0.1,1.5c1.6,1.7,3.2,3.5,4.8,5.2l0.3,0.3v46.2H629.9z
	 M566.2,243.5h54.5v6.5l-0.9,0.5l-2.3,1.2c-1.5,0.8-3,1.7-4.5,2.6c-0.7,0.4-1.5,0.9-2.2,1.4c-0.7,0.5-1.5,0.9-2.2,1.4l-2.1,1.4
	l-2.1,1.5c-1.4,1-2.7,2-4.1,3c-1.3,1-2.6,2.1-3.9,3.2c-1.3,1.1-2.5,2.2-3.8,3.3c-0.8,0.7-1.5,1.4-2.3,2.1l-0.8-0.5
	c-1.1-0.6-2.1-1.3-3.2-1.9c-1.1-0.6-2.1-1.2-3.2-1.8c-1.1-0.6-2.2-1.1-3.3-1.7c-1.1-0.5-2.3-1.1-3.4-1.6l-3.5-1.5
	c-1.2-0.5-2.4-0.9-3.6-1.4c-1-0.4-2-0.7-3-1.1V243.5z M566.2,273.8c1.7,1.8,3.4,3.5,5.1,5.3l4.9,5.1c1.6,1.7,3.3,3.4,5,5.1l5.4,5.5
	c3.4,3.4,9,3.5,12.4,0.1l2.5-2.5c1.2-1.2,2.4-2.4,3.5-3.6l3.5-3.6l12.2-12.3v27.9h-54.5V273.8z"/>
<g>
	<path class="st1" d="M137.1,122.7h98.8c7.5,0,13.5-6.1,13.5-13.5V74.3c0-7.5-6.1-13.5-13.5-13.5h-6.6c-5.4,0-10.2-3.5-11.7-8.7
		c-3.8-13.6-16.3-23.6-31.1-23.6c-14.8,0-27.3,10-31.1,23.6c-1.5,5.2-6.3,8.7-11.7,8.7h-6.6c-7.5,0-13.5,6.1-13.5,13.5v34.9
		C123.6,116.7,129.6,122.7,137.1,122.7 M186.5,45.2c8.6,0,15.6,7,15.6,15.6c0,8.6-7,15.6-15.6,15.6c-8.6,0-15.6-7-15.6-15.6
		C170.9,52.2,177.9,45.2,186.5,45.2"/>
	<path class="st1" d="M289.6,75.6H260c0,0.4,0,0.7,0,1.1v20.1h29.6c12.5,0,22.6,10.1,22.6,22.6v320.4c0,12.5-10.1,22.6-22.6,22.6
		H83.4c-12.5,0-22.6-10.1-22.6-22.6V119.4c0-12.5,10.1-22.6,22.6-22.6H113V76.7c0-0.4,0-0.7,0-1.1H83.4c-24.1,0-43.8,19.6-43.8,43.8
		v320.4c0,24.1,19.6,43.8,43.8,43.8h206.2c24.2,0,43.8-19.6,43.8-43.8V119.4C333.4,95.2,313.7,75.6,289.6,75.6"/>
	<g>
		<g>
			<rect x="87.2" y="185.6" class="st1" width="134.3" height="16.5"/>
			<rect x="87.2" y="288.5" class="st1" width="134.3" height="16.5"/>
			<rect x="87.2" y="391.4" class="st1" width="134.3" height="16.5"/>
		</g>
		<g>
			<rect x="251.8" y="185.6" class="st1" width="34" height="16.5"/>
			<rect x="251.8" y="288.5" class="st1" width="34" height="16.5"/>
			<rect x="251.8" y="391.4" class="st1" width="34" height="16.5"/>
		</g>
	</g>
</g>
</svg>
