<?xml version="1.0" encoding="UTF-8" standalone="no"?>
<!-- Created with Inkscape (http://www.inkscape.org/) -->

<svg
   xmlns:dc="http://purl.org/dc/elements/1.1/"
   xmlns:cc="http://creativecommons.org/ns#"
   xmlns:rdf="http://www.w3.org/1999/02/22-rdf-syntax-ns#"
   xmlns:svg="http://www.w3.org/2000/svg"
   xmlns="http://www.w3.org/2000/svg"
   xmlns:sodipodi="http://sodipodi.sourceforge.net/DTD/sodipodi-0.dtd"
   xmlns:inkscape="http://www.inkscape.org/namespaces/inkscape"
   version="1.1"
   id="svg2"
   xml:space="preserve"
   width="351.52731"
   height="178.15652"
   viewBox="0 0 351.52731 178.15653"
   sodipodi:docname="w.html"
   inkscape:version="0.92.4 (5da689c313, 2019-01-14)"><metadata
     id="metadata8"><rdf:RDF><cc:Work
         rdf:about=""><dc:format>image/svg+xml</dc:format><dc:type
           rdf:resource="http://purl.org/dc/dcmitype/StillImage" /><dc:title></dc:title></cc:Work></rdf:RDF></metadata><defs
     id="defs6" /><sodipodi:namedview
     pagecolor="#ffffff"
     bordercolor="#666666"
     borderopacity="1"
     objecttolerance="10"
     gridtolerance="10"
     guidetolerance="10"
     inkscape:pageopacity="0"
     inkscape:pageshadow="2"
     inkscape:window-width="1920"
     inkscape:window-height="1001"
     id="namedview4"
     showgrid="false"
     fit-margin-top="0"
     fit-margin-left="0"
     fit-margin-right="0"
     fit-margin-bottom="0"
     inkscape:zoom="0.72226889"
     inkscape:cx="803.11303"
     inkscape:cy="63.072687"
     inkscape:window-x="-9"
     inkscape:window-y="-9"
     inkscape:window-maximized="1"
     inkscape:current-layer="g10" /><g
     id="g10"
     inkscape:groupmode="layer"
     inkscape:label="AutoMechanica logo-For Client 1"
     transform="matrix(1.3333333,0,0,-1.3333333,-241.59426,676.34372)"><g
       id="g34"><path
         d="M 181.1957,404.2539 H 444.8412 V 403.687 H 181.1957 Z"
         style="fill:#ffffff;fill-opacity:1;fill-rule:nonzero;stroke:none"
         id="path36"
         inkscape:connector-curvature="0" /><path
         d="m 197.0294,373.9927 h 4.1786 v 0.6207 l -7.545,16.308 h -1.8386 l -7.5214,-16.308 v -0.6207 h 4.1785 l 0.9791,2.1013 h 6.59 z m -2.3638,5.7543 h -3.8202 l 1.8861,4.3934 z m 17.9782,-2.149 c -1.2416,0 -2.5549,0.6687 -2.5549,2.0297 v 11.0789 c -1.3371,0 -2.7459,0 -4.083,0 v -11.1507 c 0,-3.6771 3.2235,-5.8019 6.6379,-5.8019 3.4381,0 6.6617,2.1248 6.6617,5.8019 v 11.1507 c -1.3371,0 -2.7698,0 -4.1307,0 v -11.0789 c 0,-1.361 -1.2894,-2.0297 -2.531,-2.0297 z m 16.3783,9.2883 v -12.8936 c 1.4085,0 2.8173,0 4.2262,0 v 12.8936 h 4.083 c 0,1.2892 0,2.5549 0,3.8203 h -12.4161 c 0,-1.2654 0,-2.5311 0,-3.8203 z m 30.2269,-4.5606 c 0,11.5565 -17.1436,11.5565 -17.1436,0 0,-11.5804 17.1436,-11.5804 17.1436,0 z m -12.7502,0 c 0,6.0171 8.3806,6.0171 8.3806,0 0,-6.0648 -8.3806,-6.0648 -8.3806,0 z m 27.2186,1.1701 -6.5424,7.2587 h -1.5758 v -16.7618 c 1.4565,0 2.9129,0 4.3693,0 v 7.4497 l 3.534,-3.725 h 0.4773 l 3.5578,3.725 v -7.4497 c 1.4564,0 2.9129,0 4.3696,0 v 16.7618 h -1.5281 z m 26.0246,7.2108 c -3.9161,0 -6.5665,0 -10.4344,0 0,-5.5395 0,-11.1266 0,-16.7139 3.8679,0 6.7332,0 10.6492,0 0,1.2653 0,2.5548 0,3.7964 -2.5072,0 -3.9399,0 -6.3992,0 0,1.0029 0,1.9579 0,2.937 h 5.6829 c 0,1.2654 0,2.5308 0,3.7964 h -5.6829 v 2.3638 c 2.4593,0 3.7009,0 6.1844,0 0,1.2892 0,2.5787 0,3.8203 z m 6.0394,-8.3568 c 0.0239,-5.6829 4.3217,-8.5482 8.572,-8.5244 3.5575,0 7.3063,1.8627 7.9271,6.5903 -1.4564,0 -2.7697,0 -4.2024,0 -0.4535,-1.7909 -1.9102,-2.6983 -3.7247,-2.6983 -2.531,0.0241 -4.1547,2.173 -4.1547,4.6324 0,2.7697 1.6475,4.6559 4.1547,4.6559 1.7907,0 3.056,-0.764 3.653,-2.4594 1.4565,0 2.7459,0 4.2024,0 -0.6446,4.4652 -4.3934,6.3513 -7.8554,6.3513 -4.2503,0 -8.5481,-2.8652 -8.572,-8.5478 z m 36.8411,8.3568 c -1.4567,0 -2.9132,0 -4.3696,0 v -6.0647 h -5.1574 v 6.0647 c -1.4567,0 -2.9369,0 -4.3696,0 v -16.7139 c 1.4327,0 2.9129,0 4.3696,0 v 6.7093 h 5.1574 v -6.7093 c 1.4564,0 2.9129,0 4.3696,0 z m 18.0496,-16.7139 h 4.1785 v 0.6207 l -7.5449,16.308 h -1.8386 l -7.5214,-16.308 v -0.6207 h 4.1785 l 0.9791,2.1013 h 6.59 z m -2.3876,5.7781 h -3.7727 l 1.8624,4.3934 z m 24.7592,-5.7781 h 1.5281 v 16.7139 c -1.4564,0 -2.9128,0 -4.3696,0 v -8.178 l -8.4523,8.2497 h -1.552 v -16.7856 c 1.4565,0 2.9367,0 4.4172,0 v 8.2136 z m 13.8951,3.7488 v 9.2404 h 1.9579 c 0,1.4326 0,2.3159 0,3.7247 -2.7218,0 -5.4201,0 -8.1419,0 0,-1.4088 0,-2.2921 0,-3.7247 h 1.9579 v -9.2404 h -2.1252 c 0,-1.4088 0,-2.2924 0,-3.7488 2.8415,0 5.635,0 8.4765,0 0,1.4564 0,2.34 0,3.7488 z m 7.0662,4.6083 c 0.0239,-5.6829 4.3217,-8.5482 8.572,-8.5244 3.5575,0 7.3063,1.8627 7.9271,6.5903 -1.4564,0 -2.7697,0 -4.2024,0 -0.4535,-1.7909 -1.9102,-2.6983 -3.7247,-2.6983 -2.531,0.0241 -4.1547,2.173 -4.1547,4.6324 0,2.7697 1.6475,4.6559 4.1547,4.6559 1.7907,0 3.056,-0.764 3.653,-2.4594 1.4565,0 2.7459,0 4.2024,0 -0.6446,4.4652 -4.3934,6.3513 -7.8554,6.3513 -4.2503,0 -8.5481,-2.8652 -8.572,-8.5478 z m 33.5458,-8.3571 h 4.1786 v 0.6207 l -7.545,16.308 h -1.8386 l -7.5214,-16.308 v -0.6207 h 4.1785 l 0.9791,2.1013 h 6.59 z m -2.3876,5.7781 h -3.7726 l 1.8623,4.3934 z"
         style="fill:#ffffff;fill-opacity:1;fill-rule:nonzero;stroke:none"
         id="path38"
         inkscape:connector-curvature="0" /><g
         id="g40"><path
           d="m 391.4308,440.5839 31.2347,-0.0944 c 1.5585,0 2.8789,0.5391 3.962,1.6225 1.0806,1.0823 1.6234,2.4024 1.6234,3.9623 0,1.5137 -0.5428,2.8137 -1.6234,3.8954 -1.0831,1.0822 -2.4035,1.6248 -3.962,1.6248 h -35.354 v 3.1164 h 35.354 c 2.4242,0 4.4807,-0.8436 6.1705,-2.5333 1.6874,-1.6869 2.5316,-3.7233 2.5316,-6.1033 0,-2.4262 -0.8442,-4.4807 -2.5316,-6.1699 -1.6898,-1.6897 -3.7463,-2.5333 -6.1705,-2.5333 h -29.8173 z"
           style="fill:#ffffff;fill-opacity:1;fill-rule:nonzero;stroke:none"
           id="path42"
           inkscape:connector-curvature="0" /><path
           d="m 398.7592,420.554 c -0.5198,-1.3422 -1.4507,-2.3168 -2.7926,-2.9223 -0.6926,-0.303 -1.4075,-0.4543 -2.1436,-0.4543 -2.2079,0.085 -3.8106,1.1247 -4.8061,3.1164 l -28.5118,62.8038 c -0.3464,0.65 -0.8433,0.9746 -1.4935,0.9746 -0.6069,0 -1.0817,-0.3246 -1.4284,-0.9746 l -15.1319,-33.4471 c -0.218,-0.4334 -0.218,-0.8674 0,-1.2991 l 10.7801,-23.7062 c 0.563,-1.3416 0.5854,-2.7062 0.0647,-4.0912 -0.5191,-1.3422 -1.4293,-2.3168 -2.727,-2.9223 -0.6942,-0.303 -1.4065,-0.4543 -2.1435,-0.4543 -2.0784,0 -3.7015,1.0397 -4.8705,3.1164 l -28.5112,62.8038 c -0.3469,0.65 -0.8234,0.9746 -1.4286,0.9746 -0.6081,0 -1.0843,-0.3246 -1.4295,-0.9746 l -14.1942,-31.1941 -5.8096,12.776 16.3023,35.8892 c 0.3895,0.8654 0.9728,1.6004 1.7541,2.2076 l 0.0643,0.0649 c 0.085,0.0865 0.1933,0.1735 0.3251,0.2605 0.0848,0.0865 0.1936,0.1511 0.3232,0.1936 0.0867,0.0428 0.1514,0.087 0.1953,0.131 l 0.0646,0.0652 h 0.0644 l 0.0672,0.064 c 0.0419,0 0.0847,0.0221 0.1289,0.0649 h 0.0644 l 0.0649,0.0644 0.2605,0.066 h 0.0643 c 0.0426,0.0431 0.0871,0.0652 0.1293,0.0652 1.0395,0.3447 2.0565,0.3447 3.0538,0 h 0.1287 c 0.1318,-0.0442 0.261,-0.0864 0.3903,-0.1312 v -0.0644 h 0.1304 c 0.1298,-0.087 0.2591,-0.1519 0.3897,-0.1941 v -0.0647 c 0.3014,-0.1734 0.5837,-0.369 0.8436,-0.5853 l 0.065,-0.0641 c 0.7364,-0.6074 1.2778,-1.3223 1.6245,-2.1435 l 16.236,-35.5901 c 0.3024,-0.65 0.7792,-0.9749 1.4292,-0.9749 0.6052,0 1.0817,0.3249 1.4284,0.9749 l 16.1714,35.5901 c 0.3897,0.8654 0.9748,1.6004 1.754,2.2076 l 0.0644,0.0649 c 0.0867,0.0865 0.174,0.1735 0.2602,0.2605 h 0.0652 c 0.0862,0.0865 0.1953,0.1511 0.3246,0.1936 0.0425,0.0428 0.1074,0.087 0.1944,0.131 0,0.0422 0.0219,0.0652 0.0658,0.0652 l 0.0652,0.064 c 0.0864,0 0.1511,0.0221 0.1939,0.0649 0.0419,0 0.0867,0.0222 0.1307,0.0644 l 0.2588,0.066 c 0.0422,0.0431 0.1088,0.0652 0.195,0.0652 0.9958,0.3447 2.0129,0.3447 3.0523,0 h 0.0647 c 0.1734,-0.0442 0.303,-0.0864 0.3911,-0.1312 0.0428,0 0.065,-0.0218 0.065,-0.0644 h 0.1292 c 0.1296,-0.087 0.2378,-0.1519 0.3246,-0.1941 l 0.0652,-0.0647 c 0.3024,-0.1734 0.5848,-0.369 0.8436,-0.5853 0,-0.044 0.0218,-0.0641 0.066,-0.0641 0.6922,-0.6074 1.2331,-1.3223 1.6229,-2.1435 l 22.1397,-49.0805 4.0538,0.1063 -1.1254,1.4675 -22.2103,48.8044 c -0.5629,1.2554 -1.3864,2.3394 -2.4684,3.2476 -0.3894,0.3895 -0.8231,0.7143 -1.2974,0.9749 l -0.1309,0.0643 c -0.1735,0.0867 -0.3476,0.1738 -0.5191,0.2602 -0.0448,0.0428 -0.089,0.0652 -0.1309,0.0652 -0.0426,0.042 -0.0871,0.0644 -0.1296,0.0644 -0.218,0.0867 -0.4334,0.1732 -0.65,0.2602 h -0.1292 c -1.6467,0.5629 -3.3126,0.5848 -5.0015,0.064 -0.1292,-0.0422 -0.2585,-0.1082 -0.3894,-0.1936 h -0.1296 c -0.0436,-0.0439 -0.1083,-0.066 -0.195,-0.066 -0.0425,-0.0422 -0.087,-0.0646 -0.1296,-0.0646 -0.1292,-0.0426 -0.2384,-0.1095 -0.3251,-0.1942 l -0.0643,-0.0649 c -0.0865,0 -0.1735,-0.0236 -0.2605,-0.0658 -0.1293,-0.0873 -0.2384,-0.174 -0.3246,-0.2588 -0.1735,-0.0884 -0.3251,-0.1959 -0.4547,-0.3251 h -0.0643 c -0.1732,-0.1307 -0.3473,-0.2597 -0.5208,-0.3892 -1.1681,-0.9525 -2.0347,-2.079 -2.5973,-3.3786 l -14.7422,-32.472 -14.7427,32.472 c -0.6075,1.2554 -1.4508,2.3394 -2.5327,3.2476 -0.3898,0.3895 -0.8235,0.7143 -1.2995,0.9749 l -0.0649,0.0643 c -0.1734,0.0867 -0.369,0.1738 -0.5856,0.2602 -0.0425,0.0428 -0.0865,0.0652 -0.1293,0.0652 -0.0439,0.042 -0.0864,0.0644 -0.1287,0.0644 -0.174,0.0867 -0.3894,0.1732 -0.6499,0.2602 h -0.065 c -1.6891,0.5629 -3.3562,0.5848 -5.0014,0.064 -0.1287,-0.0422 -0.2605,-0.1082 -0.3892,-0.1936 h -0.1293 c -0.0887,-0.0439 -0.153,-0.066 -0.1961,-0.066 -0.0862,-0.0422 -0.1511,-0.0646 -0.1933,-0.0646 -0.0888,-0.0426 -0.1758,-0.1095 -0.2605,-0.1942 l -0.1307,-0.0649 c -0.087,0 -0.1735,-0.0236 -0.2588,-0.0658 -0.0887,-0.0873 -0.1956,-0.174 -0.3249,-0.2588 -0.1737,-0.0884 -0.3254,-0.1959 -0.4544,-0.3251 h -0.0669 c -0.1732,-0.1307 -0.3466,-0.2597 -0.5184,-0.3892 -1.1265,-0.9525 -1.9922,-2.079 -2.598,-3.3786 l -15.169,-33.3939 -15.2136,33.4599 c -0.5629,1.2113 -1.3861,2.2734 -2.4681,3.1816 -0.3897,0.3895 -0.8234,0.7143 -1.3,0.9749 l -0.1292,0.0643 c -0.1735,0.0867 -0.347,0.1956 -0.5188,0.3254 -0.0442,0 -0.0884,0.0218 -0.1306,0.0644 -0.0431,0 -0.0871,0.0224 -0.1293,0.0646 -0.2183,0.0864 -0.4337,0.1514 -0.65,0.1956 -0.0442,0.0425 -0.087,0.064 -0.1295,0.064 -1.6464,0.5208 -3.3126,0.5208 -5.0012,0 -0.1295,-0.0422 -0.2605,-0.0861 -0.3897,-0.1284 l -0.1293,-0.0652 c -0.0439,0 -0.1089,-0.0235 -0.1953,-0.066 -0.0445,0 -0.087,-0.0221 -0.1293,-0.0646 -0.0887,-0.0426 -0.1961,-0.0868 -0.3248,-0.1296 l -0.0649,-0.0646 c -0.0885,-0.0445 -0.1732,-0.0885 -0.2603,-0.1307 -0.1295,-0.0873 -0.2383,-0.1516 -0.3254,-0.1942 -0.1732,-0.1306 -0.3245,-0.2384 -0.4538,-0.3245 l -0.0646,-0.0652 c -0.1738,-0.1307 -0.3473,-0.2597 -0.5208,-0.3892 -1.1687,-0.9102 -2.0341,-2.014 -2.5973,-3.3126 l -25.8285,-56.8043 3.5155,0.0422 25.1709,55.463 c 0.3897,0.8212 0.9745,1.5358 1.754,2.143 0,0.0428 0.0202,0.0649 0.0644,0.0649 0.087,0.0865 0.1939,0.1735 0.3251,0.2605 v 0.0643 c 0.0865,0.042 0.1936,0.1072 0.3246,0.1956 0.0853,0.0426 0.1513,0.0851 0.1939,0.1299 h 0.0646 l 0.066,0.064 c 0.0856,0.0423 0.152,0.0649 0.1945,0.0649 v 0.0644 c 0.0422,0 0.0873,0 0.131,0 l 0.2588,0.1312 c 0.087,0 0.1513,0.0202 0.1953,0.0644 0.9949,0.303 2.0126,0.303 3.0523,0 0.042,0 0.0644,-0.0216 0.0644,-0.0644 0.1737,-0.0442 0.303,-0.0864 0.3894,-0.1312 h 0.0667 c 0.0425,-0.0422 0.0847,-0.0644 0.1295,-0.0644 0.1287,-0.0428 0.2358,-0.1091 0.3243,-0.1941 h 0.0646 c 0.303,-0.1735 0.5854,-0.3898 0.8442,-0.65 l 0.0643,-0.0641 c 0.737,-0.5632 1.2779,-1.2577 1.6246,-2.0789 l 34.486,-75.9881 c 0.606,-1.3416 0.65,-2.6838 0.1309,-4.0263 -0.5207,-1.3422 -1.4292,-2.3168 -2.7286,-2.9228 -0.7362,-0.3467 -1.4715,-0.5187 -2.2079,-0.5187 -2.2085,0.085 -3.8103,1.1247 -4.8061,3.1164 l -28.5112,62.8679 c -0.347,0.6063 -0.8235,0.9105 -1.4287,0.9105 -0.6502,0 -1.1488,-0.3042 -1.4935,-0.9105 l -28.512,-62.8679 c -1.126,-2.0767 -2.7284,-3.1164 -4.8059,-3.1164 -0.7364,0 -1.4508,0.172 -2.1435,0.5187 -1.3417,0.606 -2.2729,1.5806 -2.7927,2.9228 -0.5193,1.3425 -0.4768,2.6847 0.1309,4.0263 l 3.7126,8.1802 -3.3676,0.3062 -3.2678,-7.1864 c -0.9102,-2.1232 -0.9748,-4.2664 -0.1956,-6.4304 0.866,-2.1654 2.3596,-3.7457 4.4807,-4.7407 1.082,-0.4765 2.2298,-0.7149 3.443,-0.7149 1.645,0 3.1595,0.4442 4.5456,1.3318 1.3848,0.8864 2.4242,2.0871 3.1184,3.6051 l 27.1474,59.6851 27.082,-59.6851 c 1.5582,-3.1629 4.1133,-4.8059 7.664,-4.9369 1.2112,0 2.3593,0.2384 3.443,0.7149 2.1197,0.995 3.6133,2.5753 4.4807,4.7407 0.7792,2.164 0.7149,4.3072 -0.1953,6.4304 l -10.0644,22.136 13.8855,30.6 27.0819,-59.6851 c 0.6925,-1.518 1.732,-2.7284 3.1167,-3.6372 1.3861,-0.9099 2.9228,-1.3643 4.6117,-1.3643 1.169,0 2.3153,0.2602 3.4412,0.7795 2.079,0.9525 3.5507,2.5107 4.4181,4.6761 0.7793,2.1639 0.7143,4.3293 -0.1953,6.495 l -10.5219,23.0564 13.4439,29.6796 27.1474,-59.6851 c 1.5596,-3.1629 4.1139,-4.83 7.664,-5.0015 1.2129,0 2.359,0.2602 3.4427,0.7795 2.1197,0.9525 3.6133,2.5107 4.4807,4.6761 0.7792,2.1639 0.7149,4.3293 -0.195,6.495 l -5.6724,12.4645 -3.4833,-0.0422 6.2329,-13.7223 c 0.6074,-1.3416 0.65,-2.7062 0.1306,-4.0912"
           style="fill:#ffffff;fill-opacity:1;fill-rule:nonzero;stroke:none"
           id="path44"
           inkscape:connector-curvature="0" /><path
           d="m 231.1605,432.2628 -8.4914,-0.1865 c -1.1523,-2.2482 -2.8591,-4.1687 -4.942,-5.5724 -2.2634,-1.5253 -4.9773,-2.4452 -7.9143,-2.5211 -3.2536,-0.0839 -6.2901,0.8847 -8.7811,2.5951 -2.562,1.7595 -4.5522,4.303 -5.6141,7.2915 l -0.7486,2.1082 13.8943,-1.3867 c 1.2487,-0.1242 2.4318,0.2707 3.3347,1.0097 0.9025,0.7387 1.5228,1.819 1.6478,3.0639 l 0.0215,0.3337 -0.0122,0.4739 c -0.0836,1.0885 -0.5553,2.086 -1.288,2.8358 -0.7189,0.7356 -1.6918,1.2328 -2.7967,1.3428 l -13.7653,1.3734 1.2846,1.9584 c 1.3142,2.003 3.1051,3.6754 5.2172,4.8532 2.0305,1.1319 4.358,1.8031 6.8448,1.8666 2.9282,0.076 5.6829,-0.7032 8.0229,-2.1095 2.1609,-1.2994 3.9688,-3.1306 5.2345,-5.3147 l 15.3825,0.3762 -1.3584,-2.8871 -15.7357,-0.3668 -0.4022,0.805 c -1.0287,2.0597 -2.626,3.778 -4.5783,4.9516 -1.8952,1.1389 -4.1266,1.7705 -6.4987,1.709 -2.0066,-0.0513 -3.8885,-0.5947 -5.5318,-1.5109 -0.9728,-0.5422 -1.8623,-1.2172 -2.6453,-2.0001 l 8.8073,-0.8785 c 1.798,-0.1794 3.3823,-0.9893 4.5544,-2.1886 1.1888,-1.2161 1.9536,-2.8355 2.0869,-4.6043 0,-0.3453 0.0173,-0.6664 0.005,-1.0123 l -0.0233,-0.2831 c -0.2035,-2.0348 -1.2092,-3.7931 -2.6713,-4.9902 -1.461,-1.1956 -3.3806,-1.8345 -5.412,-1.633 l -9.1839,0.9164 c 0.8935,-1.4938 2.1016,-2.7759 3.5294,-3.7564 2.0211,-1.3876 4.481,-2.1736 7.1124,-2.1059 2.3635,0.061 4.5556,0.807 6.3901,2.0432 1.8959,1.2776 3.4053,3.0759 4.3237,5.1803 l 0.3626,0.8309 11.4545,0.29 -1.1166,-2.9007 z"
           style="fill:#ffffff;fill-opacity:1;fill-rule:nonzero;stroke:none"
           id="path46"
           inkscape:connector-curvature="0" /><path
           d="m 257.6741,438.3967 c -0.8053,-0.8059 -1.2087,-1.774 -1.2087,-2.9016 0,-1.1616 0.4034,-2.1447 1.2087,-2.9506 0.8062,-0.807 1.7904,-1.2087 2.9512,-1.2087 h 12.4316 c 1.1608,0 2.1441,0.4017 2.9508,1.2087 0.8048,0.8059 1.209,1.789 1.209,2.9506 0,1.1276 -0.4042,2.0957 -1.209,2.9016 -0.8067,0.8059 -1.79,1.2101 -2.9508,1.2101 h -12.4316 c -1.1608,0 -2.145,-0.4042 -2.9512,-1.2101 z m 2.9512,-9.3833 c -1.8068,0 -3.3373,0.6282 -4.5956,1.8868 -1.258,1.2577 -1.8867,2.7881 -1.8867,4.5949 0,1.7728 0.6287,3.2893 1.8867,4.5459 1.2583,1.2586 2.7888,1.8868 4.5956,1.8868 h 12.4316 c 1.8057,0 3.3372,-0.6282 4.5955,-1.8868 1.2572,-1.2566 1.8853,-2.7731 1.8853,-4.5459 0,-1.8068 -0.6281,-3.3372 -1.8853,-4.5949 -1.2583,-1.2586 -2.7898,-1.8868 -4.5955,-1.8868 z"
           style="fill:#ffffff;fill-opacity:1;fill-rule:nonzero;stroke:none"
           id="path48"
           inkscape:connector-curvature="0" /></g><path
         d="m 197.0294,373.9927 h 4.1786 v 0.6207 l -7.545,16.308 h -1.8386 l -7.5214,-16.308 v -0.6207 h 4.1785 l 0.9791,2.1013 h 6.59 z m -2.3638,5.7543 h -3.8202 l 1.8861,4.3934 z m 17.9782,-2.149 c -1.2416,0 -2.5549,0.6687 -2.5549,2.0297 v 11.0789 c -1.3371,0 -2.7459,0 -4.083,0 v -11.1507 c 0,-3.6771 3.2235,-5.8019 6.6379,-5.8019 3.4381,0 6.6617,2.1248 6.6617,5.8019 v 11.1507 c -1.3371,0 -2.7698,0 -4.1307,0 v -11.0789 c 0,-1.361 -1.2894,-2.0297 -2.531,-2.0297 z m 16.3783,9.2883 v -12.8936 c 1.4085,0 2.8173,0 4.2262,0 v 12.8936 h 4.083 c 0,1.2892 0,2.5549 0,3.8203 h -12.4161 c 0,-1.2654 0,-2.5311 0,-3.8203 z m 30.2269,-4.5606 c 0,11.5565 -17.1436,11.5565 -17.1436,0 0,-11.5804 17.1436,-11.5804 17.1436,0 z m -12.7502,0 c 0,6.0171 8.3806,6.0171 8.3806,0 0,-6.0648 -8.3806,-6.0648 -8.3806,0 z m 27.2186,1.1701 -6.5424,7.2587 h -1.5758 v -16.7618 c 1.4565,0 2.9129,0 4.3693,0 v 7.4497 l 3.534,-3.725 h 0.4773 l 3.5578,3.725 v -7.4497 c 1.4564,0 2.9129,0 4.3696,0 v 16.7618 h -1.5281 z m 26.0246,7.2108 c -3.9161,0 -6.5665,0 -10.4344,0 0,-5.5395 0,-11.1266 0,-16.7139 3.8679,0 6.7332,0 10.6492,0 0,1.2653 0,2.5548 0,3.7964 -2.5072,0 -3.9399,0 -6.3992,0 0,1.0029 0,1.9579 0,2.937 h 5.6829 c 0,1.2654 0,2.5308 0,3.7964 h -5.6829 v 2.3638 c 2.4593,0 3.7009,0 6.1844,0 0,1.2892 0,2.5787 0,3.8203 z m 6.0394,-8.3568 c 0.0239,-5.6829 4.3217,-8.5482 8.572,-8.5244 3.5575,0 7.3063,1.8627 7.9271,6.5903 -1.4564,0 -2.7697,0 -4.2024,0 -0.4535,-1.7909 -1.9102,-2.6983 -3.7247,-2.6983 -2.531,0.0241 -4.1547,2.173 -4.1547,4.6324 0,2.7697 1.6475,4.6559 4.1547,4.6559 1.7907,0 3.056,-0.764 3.653,-2.4594 1.4565,0 2.7459,0 4.2024,0 -0.6446,4.4652 -4.3934,6.3513 -7.8554,6.3513 -4.2503,0 -8.5481,-2.8652 -8.572,-8.5478 z m 36.8411,8.3568 c -1.4567,0 -2.9132,0 -4.3696,0 v -6.0647 h -5.1574 v 6.0647 c -1.4567,0 -2.9369,0 -4.3696,0 v -16.7139 c 1.4327,0 2.9129,0 4.3696,0 v 6.7093 h 5.1574 v -6.7093 c 1.4564,0 2.9129,0 4.3696,0 z m 18.0496,-16.7139 h 4.1785 v 0.6207 l -7.5449,16.308 h -1.8386 l -7.5214,-16.308 v -0.6207 h 4.1785 l 0.9791,2.1013 h 6.59 z m -2.3876,5.7781 h -3.7727 l 1.8624,4.3934 z m 24.7592,-5.7781 h 1.5281 v 16.7139 c -1.4564,0 -2.9128,0 -4.3696,0 v -8.178 l -8.4523,8.2497 h -1.552 v -16.7856 c 1.4565,0 2.9367,0 4.4172,0 v 8.2136 z m 13.8951,3.7488 v 9.2404 h 1.9579 c 0,1.4326 0,2.3159 0,3.7247 -2.7218,0 -5.4201,0 -8.1419,0 0,-1.4088 0,-2.2921 0,-3.7247 h 1.9579 v -9.2404 h -2.1252 c 0,-1.4088 0,-2.2924 0,-3.7488 2.8415,0 5.635,0 8.4765,0 0,1.4564 0,2.34 0,3.7488 z m 7.0662,4.6083 c 0.0239,-5.6829 4.3217,-8.5482 8.572,-8.5244 3.5575,0 7.3063,1.8627 7.9271,6.5903 -1.4564,0 -2.7697,0 -4.2024,0 -0.4535,-1.7909 -1.9102,-2.6983 -3.7247,-2.6983 -2.531,0.0241 -4.1547,2.173 -4.1547,4.6324 0,2.7697 1.6475,4.6559 4.1547,4.6559 1.7907,0 3.056,-0.764 3.653,-2.4594 1.4565,0 2.7459,0 4.2024,0 -0.6446,4.4652 -4.3934,6.3513 -7.8554,6.3513 -4.2503,0 -8.5481,-2.8652 -8.572,-8.5478 z m 33.5458,-8.3571 h 4.1786 v 0.6207 l -7.545,16.308 h -1.8386 l -7.5214,-16.308 v -0.6207 h 4.1785 l 0.9791,2.1013 h 6.59 z m -2.3876,5.7781 h -3.7726 l 1.8623,4.3934 z"
         style="fill:#ffffff;fill-opacity:1;fill-rule:nonzero;stroke:none"
         id="path50"
         inkscape:connector-curvature="0" /></g></g></svg>