<?xml version="1.0" encoding="utf-8"?>
<!-- Generator: Adobe Illustrator 19.0.0, SVG Export Plug-In . SVG Version: 6.00 Build 0)  -->
<svg version="1.0" id="Layer_1" xmlns="http://www.w3.org/2000/svg" xmlns:xlink="http://www.w3.org/1999/xlink" x="0px" y="0px"
	 viewBox="0 0 512 512" style="enable-background:new 0 0 512 512;" xml:space="preserve">
<style type="text/css">
	.st0{fill:#D20A0A;}
</style>
<g>
	<path class="st0" d="M0,253.9c32.7-52.7,77.1-92.3,133.8-117.6c46.7-20.8,95.8-29.3,146.6-24.6C380.9,121,457.7,169.3,512,253.9
		c0,1.3,0,2.7,0,4c-38.5,61.6-91.8,104.8-160.8,128C218.7,430.3,74,377.7,0.6,258.7c-0.2-0.3-0.4-0.5-0.6-0.8
		C0,256.6,0,255.3,0,253.9z M251.7,123.8c-12.5,1.4-29.2,2.2-45.6,5.2C126,143.4,63.4,185,17.5,252.1c-1.9,2.7-2.3,4.7-0.1,7.4
		c11,13.6,20.8,28.3,33,40.7c69.2,69.6,153.1,97.8,249.9,83.5c82.2-12.2,146.3-54.8,193.5-123.1c2.3-3.3,2.6-5.6,0.1-9.1
		C436.3,168.5,356.4,127.1,251.7,123.8z"/>
	<path class="st0" d="M142.1,255.8c0.1-62.6,51.5-113.9,114.1-113.7c62.6,0.1,113.8,51.4,113.7,114.1
		c-0.1,62.6-51.5,113.9-114.1,113.8C193.2,369.7,142,318.4,142.1,255.8z M156,255.9c0.3,56.2,45.2,100.3,101.7,100
		c53.8-0.3,98.5-45.8,98.2-100c-0.3-56-45.1-100.2-101.2-100C200.6,156.1,155.7,201.6,156,255.9z"/>
	<path class="st0" d="M196.1,253.4c0.7-30.2,26.9-56.5,57.1-57.5c6.1-0.2,9.6,2.3,9.7,6.8c0.1,4.3-3.2,6.9-9,7.1
		c-24,1.1-42.7,20-43.9,44.1c-0.3,5.7-3,9-7.3,8.8C198.3,262.6,195.9,259.2,196.1,253.4z"/>
</g>
</svg>
